<svg xmlns="http://www.w3.org/2000/svg" viewBox="0 0 478.98 36.05"><defs><style>.cls-1{fill:#313231;}</style></defs><title>logo</title><g id="レイヤー_2" data-name="レイヤー 2"><g id="レイヤー_1-2" data-name="レイヤー 1"><path class="cls-1" d="M232,5q-1.2,1.62-2.62,3.61t-2.9,4q-1.49,2-2.89,4l-2.5,3.49-1.83,2.55-.54.76-.7-1q-.79-1.06-1.91-2.63t-2.52-3.49L207.82,8.5Q206.4,6.57,205.25,5t-1.91-2.7l-1-1.42-.6-.84V35.66h6.2v-17l2.17,3q1.19,1.64,2.54,3.56t2.57,3.59l2.09,2.88c.6.83,1,1.32,1.12,1.5l.28.33L229,18.62v17h6.57V0L234,2.29Q233.16,3.41,232,5Z"/><path class="cls-1" d="M272.64,33.19l-1.69-4L268.7,24Q267.46,21,266.16,18t-2.54-5.92l-2.25-5.27q-1-2.37-1.71-4L258.46.18l-.31.68q-.18.41-.86,2t-1.69,4l-2.25,5.27Q252.12,15,250.81,18T248.27,24L246,29.22l-1.69,4q-.67,1.6-.85,2l-.21.47h6.18l3.6-8.65h10.86L265,29.75q.59,1.42,1.08,2.59l.83,2,.56,1.33h6.18l-.21-.47Q273.32,34.78,272.64,33.19ZM255.22,21.7l3.1-7.38h0v-.07s.05-.19.12-.41a2.91,2.91,0,0,0,.2.53l3,7.34Z"/><path class="cls-1" d="M304.19,31.63l-2-3.15-1.91-3-1.76-2.8a9.57,9.57,0,0,0,2-1.71,9.77,9.77,0,0,0,1.59-2.4,12,12,0,0,0,.88-2.69,14.16,14.16,0,0,0,.28-2.77,11.54,11.54,0,0,0-.88-4.59A9.54,9.54,0,0,0,299.91,5,11.08,11.08,0,0,0,296,2.88a16.39,16.39,0,0,0-5-.74h-9.61V35.66h6.16V24.35h4.54q1.62,2.46,3.37,5.19l3.83,6,.1.15h7.41l-.33-.51Zm-7.31-16.69a4.66,4.66,0,0,1-.88,1.68,5.3,5.3,0,0,1-1.7,1.33,5.83,5.83,0,0,1-2.69.55h-4.08V8h4.13a6,6,0,0,1,2.73.55,4.93,4.93,0,0,1,1.67,1.35,4.75,4.75,0,0,1,.84,1.71,6.77,6.77,0,0,1,.24,1.65A6.37,6.37,0,0,1,296.87,14.94Z"/><polygon class="cls-1" points="320.58 2.15 314.42 2.15 314.42 35.66 336.53 35.66 336.53 29.77 320.58 29.77 320.58 2.15"/><path class="cls-1" d="M374.42,5q-1.2,1.62-2.62,3.61t-2.9,4q-1.49,2-2.89,4l-2.5,3.49-1.83,2.55-.54.76-.7-1q-.79-1.06-1.91-2.63T356,16.36l-2.86-3.92L350.26,8.5Q348.85,6.57,347.7,5t-1.91-2.7l-1-1.42-.6-.85V35.66h6.2v-17l2.17,3q1.19,1.64,2.54,3.56t2.57,3.59l2.09,2.88c.6.83,1,1.32,1.12,1.51l.28.33,10.32-14.86v17h6.57V0l-1.64,2.28Q375.61,3.41,374.42,5Z"/><path class="cls-1" d="M415.09,33.19l-1.69-4L411.15,24Q409.91,21,408.61,18t-2.54-5.92l-2.25-5.27q-1-2.37-1.71-4l-.88-2-.3-.68-.3.68q-.18.41-.86,2t-1.69,4l-2.25,5.27Q394.57,15,393.26,18T390.72,24l-2.25,5.27-1.69,4q-.67,1.59-.85,2l-.21.47h6.18L395.5,27h10.86l1.13,2.75q.59,1.42,1.08,2.59l.83,2,.48,1.13.09.2h6.18l-.21-.47Q415.77,34.78,415.09,33.19ZM397.67,21.7l3.1-7.38h0v-.07s.05-.19.12-.41a2.88,2.88,0,0,0,.2.53l3,7.34Z"/><path class="cls-1" d="M446.63,31.63l-2-3.15-1.91-3L441,22.64a9.57,9.57,0,0,0,2-1.71,9.77,9.77,0,0,0,1.59-2.4,12,12,0,0,0,.88-2.69,14.17,14.17,0,0,0,.28-2.77,11.54,11.54,0,0,0-.88-4.59A9.54,9.54,0,0,0,442.36,5a11.08,11.08,0,0,0-3.9-2.14,16.39,16.39,0,0,0-5-.74h-9.61V35.66H430V24.35h4.54q1.62,2.46,3.37,5.19l3.83,6,.1.15h7.41l-.33-.51Zm-7.31-16.69a4.66,4.66,0,0,1-.88,1.68,5.3,5.3,0,0,1-1.7,1.33,5.83,5.83,0,0,1-2.69.55H430V8h4.13a6,6,0,0,1,2.73.55,4.93,4.93,0,0,1,1.67,1.35,4.75,4.75,0,0,1,.84,1.71,6.78,6.78,0,0,1,.24,1.65A6.37,6.37,0,0,1,439.32,14.94Z"/><polygon class="cls-1" points="463.03 29.77 463.03 2.15 456.87 2.15 456.87 35.66 478.98 35.66 478.98 29.77 463.03 29.77"/><polygon class="cls-1" points="27.85 8.11 35.78 8.11 35.78 35.69 41.98 35.69 41.98 8.11 50.09 8.11 50.09 2.18 27.85 2.18 27.85 8.11"/><path class="cls-1" d="M77.7,23.32a6.25,6.25,0,0,1-.53,2.57A6.64,6.64,0,0,1,75.68,28a7.36,7.36,0,0,1-2.22,1.44,7,7,0,0,1-2.73.54A6.79,6.79,0,0,1,68,29.44,7.13,7.13,0,0,1,65.85,28a6.79,6.79,0,0,1-1.46-2.11,6.25,6.25,0,0,1-.53-2.57V2H57.69V23.46a12.39,12.39,0,0,0,1,5.07,11.77,11.77,0,0,0,2.78,3.92A12.69,12.69,0,0,0,65.63,35a14.34,14.34,0,0,0,5.1.9,14.52,14.52,0,0,0,5.12-.9A12.92,12.92,0,0,0,80,32.45a11.65,11.65,0,0,0,2.81-3.92,12.41,12.41,0,0,0,1-5.07V2H77.7Z"/><path class="cls-1" d="M116,7.69a16.6,16.6,0,0,0-5.72-4,21.33,21.33,0,0,0-8.54-1.54H92.89V35.69h10.47a18.58,18.58,0,0,0,6.44-1.12,16.07,16.07,0,0,0,5.36-3.24,15.63,15.63,0,0,0,3.66-5.13,16.42,16.42,0,0,0,1.36-6.78,20.31,20.31,0,0,0-1-6.16A15,15,0,0,0,116,7.69Zm-2.87,16A9.49,9.49,0,0,1,110.75,27a10.15,10.15,0,0,1-3.62,2.07,14.61,14.61,0,0,1-4.63.7H99.09V8.16h4.08a12.64,12.64,0,0,1,3.69.59,10.22,10.22,0,0,1,3.49,1.88A10,10,0,0,1,112.95,14,11.38,11.38,0,0,1,114,19,11.71,11.71,0,0,1,113.12,23.67Z"/><rect class="cls-1" x="128.73" y="2.18" width="6.2" height="33.51"/><path class="cls-1" d="M172.66,6.92A17.89,17.89,0,0,0,167.2,3.2a16.63,16.63,0,0,0-13.27,0,17.54,17.54,0,0,0-9.09,9.18,16.88,16.88,0,0,0,0,13.26,17.54,17.54,0,0,0,3.67,5.42,17.21,17.21,0,0,0,5.42,3.65,17.15,17.15,0,0,0,13.26,0,17.25,17.25,0,0,0,9.16-9.07,16.89,16.89,0,0,0,0-13.26A17.59,17.59,0,0,0,172.66,6.92Zm-2,16.44a11.38,11.38,0,0,1-2.32,3.55,10.89,10.89,0,0,1-3.45,2.38,10.39,10.39,0,0,1-4.21.87,10.6,10.6,0,0,1-4.3-.87,11.41,11.41,0,0,1-3.5-2.39,11,11,0,0,1-2.36-3.54,11.55,11.55,0,0,1,0-8.71,11.64,11.64,0,0,1,2.32-3.57,10.73,10.73,0,0,1,3.45-2.4,10.83,10.83,0,0,1,8.52,0,11,11,0,0,1,3.48,2.41,11.8,11.8,0,0,1,2.37,3.57,11,11,0,0,1,.87,4.35A11.2,11.2,0,0,1,170.7,23.35Z"/><path class="cls-1" d="M21,21.25a10.67,10.67,0,0,0-3.09-3.07,18.83,18.83,0,0,0-4-1.95c-1.4-.5-2.71-1-3.88-1.46a12.63,12.63,0,0,1-2.92-1.58,2.47,2.47,0,0,1-1.06-2.08A2.88,2.88,0,0,1,7.57,8.64a7.38,7.38,0,0,1,4.16-1l.76,0c.09,0,.62.05,1.39.15a24.1,24.1,0,0,1,5.18,1.14,6.3,6.3,0,0,1,.73.34V3.41A28.67,28.67,0,0,0,13.54,2c-.63-.07-1.28-.11-1.93-.12h-.28a13.53,13.53,0,0,0-5,.83A10.89,10.89,0,0,0,2.83,4.93,8.88,8.88,0,0,0,.7,8,9.13,9.13,0,0,0,0,11.48a6.63,6.63,0,0,0,1.26,4.14,10.67,10.67,0,0,0,3.09,2.7,24.21,24.21,0,0,0,4,1.85c1.38.5,2.68,1,3.88,1.55a11.86,11.86,0,0,1,2.91,1.75,2.91,2.91,0,0,1,1.08,2.34,2.6,2.6,0,0,1-.78,2,6.16,6.16,0,0,1-2,1.28,10.16,10.16,0,0,1-2.42.65,15.54,15.54,0,0,1-2,.18,12,12,0,0,1-1.66-.13l-.11,0c-.25,0-.64-.1-1.12-.21A21.09,21.09,0,0,1,1,27.82c-.33-.17-.65-.35-1-.54V34a15.78,15.78,0,0,0,4.32,1.43l1.19.23c.47.08,1,.14,1.5.19H7q1,.08,2.11.09a20.86,20.86,0,0,0,5.75-.71,11.77,11.77,0,0,0,4.1-2,8.42,8.42,0,0,0,2.46-3.14A9.85,9.85,0,0,0,22.29,26,8.53,8.53,0,0,0,21,21.25Z"/></g></g></svg>